<?xml version="1.0" encoding="utf-8" ?><svg xmlns="http://www.w3.org/2000/svg" xmlns:xlink="http://www.w3.org/1999/xlink" width="1024" height="1024" viewBox="0 0 1024 1024"><path fill="#161719" d="M0 0L1024 0L1024 1024L0 1024L0 0Z"/><path fill="#11D4AB" d="M461.844 371.688C471.266 370.251 486.308 370.29 492.007 378.94C500.25 391.453 494.238 407.898 478.273 408.351C468.698 408.623 458.256 409.29 457.408 421.393C457.198 439.008 457.741 456.508 457.318 474.143C456.871 492.778 459.694 496.131 478.484 496.84C496.218 497.508 502.513 519.243 488.517 530.65C481.315 535.018 476.239 533.356 468.836 533.719C444.684 535.212 420.901 514.677 419.071 490.467C417.644 471.587 418.871 451.514 418.461 432.479C418.312 425.55 418.282 416.365 419.681 409.653C421.205 402.42 424.367 395.633 428.923 389.812C437.403 378.965 448.384 373.381 461.844 371.688Z"/><path fill="#11D4AB" d="M544.419 371.613C546.918 371.513 549.418 371.443 551.919 371.403C584.216 371.011 605.376 390.958 605.523 423.488L605.468 460.356C605.584 482.935 608.415 502.759 590.823 519.621C577.611 532.284 568.085 533.658 551.028 533.608C546.417 533.59 542.193 533.513 537.979 531.322C533.694 529.094 530.682 524.692 529.329 520.129C527.757 514.83 528.946 509.849 531.624 505.132C538.438 493.13 547.128 498.981 556.914 495.983C560.484 494.89 563.868 492.038 565.463 488.659C567.945 483.401 567.618 421.202 565.391 415.606C561.766 406.497 545.335 409.824 537.812 406.127C533.71 404.111 530.81 401.063 529.433 396.67C527.808 391.486 528.154 385.962 530.866 381.221C533.997 375.745 538.503 373.146 544.419 371.613Z"/><path fill="#FEFEFE" d="M376.465 592.054C392.533 590.367 406.971 601.914 408.856 617.96C410.741 634.007 399.372 648.585 383.35 650.668C372.809 652.038 362.346 647.633 355.958 639.136C349.571 630.64 348.247 619.365 352.491 609.619C356.736 599.874 365.893 593.164 376.465 592.054Z"/><path fill="#161719" d="M375.555 600.577C387.021 598.329 398.142 605.79 400.409 617.252C402.677 628.714 395.235 639.847 383.777 642.135C372.291 644.428 361.124 636.963 358.851 625.474C356.578 613.984 364.062 602.83 375.555 600.577Z"/><path fill="#FEFEFE" d="M545.756 592.671C553.29 591.814 560.058 593.995 566.18 598.602C571.027 602.249 578.83 618.363 573.937 623.574C570.261 625.218 535.725 624.335 528.525 624.429C529.605 629.156 530.849 634.146 534.733 637.358C544.408 645.359 556.001 643.994 564.083 635.165L565.886 631.494L574.731 631.449C571.044 641.244 565.86 647.345 555.007 649.39C538.507 652.568 522.875 644.456 520.449 626.635C517.925 608.098 526.851 595.132 545.756 592.671Z"/><path fill="#161719" d="M543.412 600.61C557.184 599.639 564.771 603.001 566.983 617.603C562.551 617.738 557.715 617.649 553.25 617.656L529.051 617.553C530.574 607.633 533.725 603.264 543.412 600.61Z"/><path fill="#FEFEFE" d="M724.021 593.13C727.313 592.73 730.387 592.863 733.625 593.201C756.398 595.582 751.461 613.288 751.553 629.92C751.574 633.589 750.841 637.127 753.237 640.179C755.251 641.189 757.057 640.993 759.355 641.049L759.406 648.494C751.078 648.517 744.804 650.074 743.82 639.941C733.994 650.449 713.147 655.419 703.891 642.015C702.285 638.176 701.351 632.016 702.99 628.091C708.158 615.505 729.825 621.123 738.517 616.008C754.706 606.481 729.365 594.97 719.483 602.634C714.28 606.67 714.474 607.129 712.792 613.252L705.002 613.26C706.665 600.876 711.584 595.503 724.021 593.13Z"/><path fill="#161719" d="M742.278 622.556C742.733 622.414 742.414 622.479 743.255 622.618C745.351 630.048 739.078 637.94 732.319 640.307C725.464 642.707 721.207 643.429 714.492 640.603C704.537 632.182 714.061 626.475 723.023 625.799C729.394 625.318 736.159 624.444 742.278 622.556Z"/><path fill="#FEFEFE" d="M300.273 571.689C309.31 570.073 321.95 573.138 329.308 578.663C337.955 585.157 341.228 593.064 342.765 603.45L333.722 603.507C332.572 596.478 331.088 590.614 325.01 586.051C312.28 576.493 289.288 578.233 279.683 591.484C270.235 604.517 272.922 627.472 286.975 636.518C295.58 642.047 305.56 642.541 315.269 640.441C327.374 637.153 332.111 630.372 333.989 618.448L342.519 618.505C341.641 625.11 340.105 630.375 336.261 635.976C325.918 652.759 294.512 653.985 280.233 641.975C252.849 618.944 263.341 576.016 300.273 571.689Z"/><path fill="#FEFEFE" d="M447.58 592.71C453.828 592.34 461.058 594.365 465.443 598.961C467.819 601.464 469.474 604.564 470.231 607.931C471.35 612.873 470.65 641.341 470.594 648.538L462.181 648.512C461.987 638.859 462.071 628.369 462.248 618.71C462.538 602.866 449.944 596.115 435.906 602.816C424.058 611.059 427.641 635.059 427.689 648.478L419.113 648.423C419.229 630.33 418.955 612.193 419.164 594.139L427.006 594.067C427.061 597.495 427.291 600.535 427.562 603.955C427.96 603.461 428.362 602.969 428.766 602.479C434.995 594.945 438.192 593.621 447.58 592.71Z"/><path fill="#FEFEFE" d="M623.476 593.918C627.142 593.794 630.885 593.866 634.559 593.896C627.322 601.209 618.349 613.14 611.763 621.433C619.507 629.919 626.508 639.551 634.08 648.421C631.931 648.714 626.072 648.584 623.622 648.59C617.598 641.18 611.69 634.09 605.961 626.43C600.45 634.362 594.631 641.125 588.439 648.54L578.083 648.498C583.982 639.832 593.216 630.098 599.816 620.842C592.876 611.663 585.036 603.608 578.074 594.072C581.261 594.169 585.414 593.966 588.673 593.897C594.898 600.676 599.881 608.58 606.392 615.48C611.923 608.165 617.619 600.976 623.476 593.918Z"/><path fill="#FEFEFE" d="M655.878 579.046C656.418 579.093 656.076 579.019 656.817 579.514C657.216 583.77 656.981 589.819 656.936 594.217L672.478 593.992L672.481 601.438L656.973 601.417C656.988 607.654 655.781 636.972 658.674 640.274C660.253 642.075 670.375 641.298 672.902 641.292C672.967 643.373 673.411 646.677 672.466 648.335L671.125 648.53C647.995 648.421 648.857 650.799 648.904 626.428L648.986 601.529L636.919 601.508L637.036 594.086L649.056 594.18L649.012 581.288L655.878 579.046Z"/><path fill="#FEFEFE" d="M496.837 579.037L497.311 578.927L497.927 579.5C498.394 583.423 498.121 590.22 498.076 594.367L513.972 594.277L513.916 601.435L498.134 601.452C498.083 608.466 496.635 636.179 499.901 640.457C503.097 642.102 510.637 641.341 514.511 641.193C514.594 643.541 514.867 645.918 514.238 648.137L513.125 648.486C489.727 648.746 490.325 650.495 490.404 627.195C490.479 618.637 490.476 610.079 490.395 601.522L477.132 601.478L477.001 594.498L490.495 594.444L490.34 580.931C492.442 580.441 494.752 579.674 496.837 579.037Z"/><path fill="#11D4AB" d="M490.038 440.695C497.361 439.6 504.198 444.613 505.355 451.927C506.512 459.24 501.556 466.119 494.253 467.337C486.862 468.57 479.883 463.542 478.713 456.141C477.542 448.741 482.628 441.804 490.038 440.695Z"/><path fill="#11D4AB" d="M528.925 440.668C536.17 438.969 543.416 443.479 545.091 450.73C546.766 457.98 542.232 465.212 534.976 466.863C527.754 468.506 520.563 463.997 518.896 456.781C517.229 449.564 521.714 442.358 528.925 440.668Z"/><path fill="#FEFEFE" d="M683.814 593.498C686.695 593.464 689.462 593.622 692.336 593.757C692.844 610.843 692.182 631.085 692.11 648.424C690.5 648.59 685.759 648.475 683.928 648.473C684.061 630.148 684.023 611.822 683.814 593.498Z"/><path fill="#FEFEFE" d="M686.172 574.318C688.288 573.616 690.619 574.116 692.262 575.624C693.904 577.132 694.602 579.411 694.084 581.58C693.567 583.749 691.915 585.467 689.768 586.071C686.553 586.974 683.204 585.145 682.227 581.952C681.25 578.758 683.001 575.368 686.172 574.318Z"/></svg>